# xmcd
#
# Track frame offsets: 
#        151
#        20248
#        34401
#        51162
#        70513
#        88678
#        108131
#        121422
#        137637
#        158130
#        172323
#        192090
#        210271
#        227026
#        243619
#        261792
#
# Disc length: 3663 seconds
#
# Revision: 2
# Processed by: cddbd v1.5.2PL0 Copyright (c) Steve Scherf et al.
# Submitted via: ExactAudioCopy v0.95b4
#
DISCID=df0e4d10
DTITLE=ลูกแพร ไหมไทย อุไรพร - รวมฮิต 16 เพลงดัง ตลับเพชร
DYEAR=2005
DGENRE=Country
TTITLE0=วันที่รอคอย
TTITLE1=ผู้กองหน้าฮ้าน
TTITLE2=เห็นเธอที่เยอรมัน
TTITLE3=น้ำตาจ่าน้อย
TTITLE4=หัวใจผู้ชาย
TTITLE5=ช่วยงานที่ร้านเหล้า
TTITLE6=รักสาวนครสวรรค์
TTITLE7=แม่ฮ่างมหาเสน่ห์
TTITLE8=คิดฮอดอย่างแฮง
TTITLE9=คิดฮอดอ้ายแน่เด้อ
TTITLE10=ดาวเคียงเดือน
TTITLE11=วัน ทู คอล อ้อนแฟน
TTITLE12=พ่ายรักจากโรงทอ
TTITLE13=แพ้รบสนามรัก
TTITLE14=คิดฮอดสาวฟังลำ
TTITLE15=หนุ่มศรีสะเกษ
EXTD=
EXTT0=
EXTT1=
EXTT2=
EXTT3=
EXTT4=
EXTT5=
EXTT6=
EXTT7=
EXTT8=
EXTT9=
EXTT10=
EXTT11=
EXTT12=
EXTT13=
EXTT14=
EXTT15=
PLAYORDER=
